<?xml version="1.0" encoding="UTF-8" standalone="no"?>
<!DOCTYPE svg PUBLIC "-//W3C//DTD SVG 1.1//EN"
 "http://www.w3.org/Graphics/SVG/1.1/DTD/svg11.dtd">
<!-- Generated by graphviz version 2.47.0 (20210316.0004)
 -->
<!-- Title: dependencies Pages: 1 -->
<svg width="954pt" height="284pt"
 viewBox="0.00 0.00 954.00 284.00" xmlns="http://www.w3.org/2000/svg" xmlns:xlink="http://www.w3.org/1999/xlink">
<g id="graph0" class="graph" transform="scale(1 1) rotate(0) translate(4 280)">
<title>dependencies</title>
<polygon fill="white" stroke="transparent" points="-4,4 -4,-280 950,-280 950,4 -4,4"/>
<text text-anchor="start" x="452.01" y="-42.4" font-family="sans-serif" font-weight="bold" font-size="14.00">Legend</text>
<polygon fill="#ffffb3" stroke="transparent" points="239,-10 239,-30 259,-30 259,-10 239,-10"/>
<text text-anchor="start" x="262.63" y="-15.4" font-family="sans-serif" font-size="14.00"> &#160;Declarations</text>
<polygon fill="#8dd3c7" stroke="transparent" points="352,-10 352,-30 372,-30 372,-10 352,-10"/>
<text text-anchor="start" x="375.73" y="-15.4" font-family="sans-serif" font-size="14.00"> &#160;Module</text>
<polygon fill="#80b1d3" stroke="transparent" points="438,-10 438,-30 458,-30 458,-10 438,-10"/>
<text text-anchor="start" x="461.78" y="-15.4" font-family="sans-serif" font-size="14.00"> &#160;Bootstrap</text>
<polygon fill="#fdb462" stroke="transparent" points="535,-10 535,-30 555,-30 555,-10 535,-10"/>
<text text-anchor="start" x="558.67" y="-15.4" font-family="sans-serif" font-size="14.00"> &#160;Providers</text>
<polygon fill="#fb8072" stroke="transparent" points="631,-10 631,-30 651,-30 651,-10 631,-10"/>
<text text-anchor="start" x="654.73" y="-15.4" font-family="sans-serif" font-size="14.00"> &#160;Exports</text>
<g id="clust1" class="cluster">
<title>cluster_TabsModule</title>
<polygon fill="none" stroke="black" stroke-dasharray="1,5" points="8,-70 8,-268 938,-268 938,-70 8,-70"/>
</g>
<g id="clust2" class="cluster">
<title>cluster_TabsModule_declarations</title>
<polygon fill="none" stroke="black" points="649,-78 649,-130 930,-130 930,-78 649,-78"/>
</g>
<g id="clust7" class="cluster">
<title>cluster_TabsModule_bootstrap</title>
<polygon fill="none" stroke="black" points="383,-208 383,-260 511,-260 511,-208 383,-208"/>
</g>
<g id="clust8" class="cluster">
<title>cluster_TabsModule_providers</title>
<polygon fill="none" stroke="black" points="515,-78 515,-130 641,-130 641,-78 515,-78"/>
</g>
<g id="clust5" class="cluster">
<title>cluster_TabsModule_imports</title>
<polygon fill="none" stroke="black" points="16,-78 16,-130 507,-130 507,-78 16,-78"/>
</g>
<g id="clust6" class="cluster">
<title>cluster_TabsModule_exports</title>
<polygon fill="none" stroke="black" points="217,-208 217,-260 375,-260 375,-208 217,-208"/>
</g>
<!-- SplitPanelComponent -->
<g id="node1" class="node">
<title>SplitPanelComponent</title>
<polygon fill="#ffffb3" stroke="black" points="922.39,-122 783.61,-122 783.61,-86 922.39,-86 922.39,-122"/>
<text text-anchor="middle" x="853" y="-99.8" font-family="Times,serif" font-size="14.00">SplitPanelComponent</text>
</g>
<!-- TabsModule -->
<g id="node3" class="node">
<title>TabsModule</title>
<polygon fill="#8dd3c7" stroke="black" points="490.26,-187 487.26,-191 466.26,-191 463.26,-187 403.74,-187 403.74,-151 490.26,-151 490.26,-187"/>
<text text-anchor="middle" x="447" y="-164.8" font-family="Times,serif" font-size="14.00">TabsModule</text>
</g>
<!-- SplitPanelComponent&#45;&gt;TabsModule -->
<g id="edge1" class="edge">
<title>SplitPanelComponent&#45;&gt;TabsModule</title>
<path fill="none" stroke="black" d="M853,-122.29C853,-144.21 853,-178 853,-178 853,-178 500.45,-178 500.45,-178"/>
<polygon fill="black" stroke="black" points="500.45,-174.5 490.45,-178 500.45,-181.5 500.45,-174.5"/>
</g>
<!-- TabsComponent -->
<g id="node2" class="node">
<title>TabsComponent</title>
<polygon fill="#ffffb3" stroke="black" points="765.05,-122 656.95,-122 656.95,-86 765.05,-86 765.05,-122"/>
<text text-anchor="middle" x="711" y="-99.8" font-family="Times,serif" font-size="14.00">TabsComponent</text>
</g>
<!-- TabsComponent&#45;&gt;TabsModule -->
<g id="edge2" class="edge">
<title>TabsComponent&#45;&gt;TabsModule</title>
<path fill="none" stroke="black" d="M711,-122.11C711,-141.34 711,-169 711,-169 711,-169 500.3,-169 500.3,-169"/>
<polygon fill="black" stroke="black" points="500.3,-165.5 490.3,-169 500.3,-172.5 500.3,-165.5"/>
</g>
<!-- SplitPanelComponent  -->
<g id="node8" class="node">
<title>SplitPanelComponent </title>
<polygon fill="#fb8072" stroke="black" points="367.39,-252 224.61,-252 224.61,-216 367.39,-216 367.39,-252"/>
<text text-anchor="middle" x="296" y="-229.8" font-family="Times,serif" font-size="14.00">SplitPanelComponent </text>
</g>
<!-- TabsModule&#45;&gt;SplitPanelComponent  -->
<g id="edge7" class="edge">
<title>TabsModule&#45;&gt;SplitPanelComponent </title>
<path fill="none" stroke="black" stroke-dasharray="5,2" d="M403.45,-180C367.55,-180 322.49,-180 322.49,-180 322.49,-180 322.49,-205.72 322.49,-205.72"/>
<polygon fill="black" stroke="black" points="318.99,-205.72 322.49,-215.72 325.99,-205.72 318.99,-205.72"/>
</g>
<!-- TabsComponent  -->
<g id="node9" class="node">
<title>TabsComponent </title>
<polygon fill="#fb8072" stroke="black" points="503.04,-252 390.96,-252 390.96,-216 503.04,-216 503.04,-252"/>
<text text-anchor="middle" x="447" y="-229.8" font-family="Times,serif" font-size="14.00">TabsComponent </text>
</g>
<!-- TabsModule&#45;&gt;TabsComponent  -->
<g id="edge8" class="edge">
<title>TabsModule&#45;&gt;TabsComponent </title>
<path fill="none" stroke="black" stroke-dasharray="5,2" d="M461.46,-187.11C461.46,-187.11 461.46,-205.99 461.46,-205.99"/>
<polygon fill="black" stroke="black" points="457.96,-205.99 461.46,-215.99 464.96,-205.99 457.96,-205.99"/>
</g>
<!-- TabsModule&#45;&gt;TabsComponent  -->
<g id="edge9" class="edge">
<title>TabsModule&#45;&gt;TabsComponent </title>
<path fill="none" stroke="black" stroke-dasharray="1,5" d="M432.54,-187.11C432.54,-187.11 432.54,-205.99 432.54,-205.99"/>
<polygon fill="black" stroke="black" points="429.04,-205.99 432.54,-215.99 436.04,-205.99 429.04,-205.99"/>
</g>
<!-- SettingsModule -->
<g id="node4" class="node">
<title>SettingsModule</title>
<polygon fill="#8dd3c7" stroke="black" points="499.16,-122 496.16,-126 475.16,-126 472.16,-122 394.84,-122 394.84,-86 499.16,-86 499.16,-122"/>
<text text-anchor="middle" x="447" y="-99.8" font-family="Times,serif" font-size="14.00">SettingsModule</text>
</g>
<!-- SettingsModule&#45;&gt;TabsModule -->
<g id="edge3" class="edge">
<title>SettingsModule&#45;&gt;TabsModule</title>
<path fill="none" stroke="black" d="M447,-122.11C447,-122.11 447,-140.99 447,-140.99"/>
<polygon fill="black" stroke="black" points="443.5,-140.99 447,-150.99 450.5,-140.99 443.5,-140.99"/>
</g>
<!-- SharedModule -->
<g id="node5" class="node">
<title>SharedModule</title>
<polygon fill="#8dd3c7" stroke="black" points="376.42,-122 373.42,-126 352.42,-126 349.42,-122 277.58,-122 277.58,-86 376.42,-86 376.42,-122"/>
<text text-anchor="middle" x="327" y="-99.8" font-family="Times,serif" font-size="14.00">SharedModule</text>
</g>
<!-- SharedModule&#45;&gt;TabsModule -->
<g id="edge4" class="edge">
<title>SharedModule&#45;&gt;TabsModule</title>
<path fill="none" stroke="black" d="M371.7,-122.01C371.7,-138.05 371.7,-159 371.7,-159 371.7,-159 393.64,-159 393.64,-159"/>
<polygon fill="black" stroke="black" points="393.64,-162.5 403.64,-159 393.64,-155.5 393.64,-162.5"/>
</g>
<!-- SnippetsModule -->
<g id="node6" class="node">
<title>SnippetsModule</title>
<polygon fill="#8dd3c7" stroke="black" points="259.77,-122 256.77,-126 235.77,-126 232.77,-122 152.23,-122 152.23,-86 259.77,-86 259.77,-122"/>
<text text-anchor="middle" x="206" y="-99.8" font-family="Times,serif" font-size="14.00">SnippetsModule</text>
</g>
<!-- SnippetsModule&#45;&gt;TabsModule -->
<g id="edge5" class="edge">
<title>SnippetsModule&#45;&gt;TabsModule</title>
<path fill="none" stroke="black" d="M242.35,-122.27C242.35,-140.56 242.35,-166 242.35,-166 242.35,-166 393.6,-166 393.6,-166"/>
<polygon fill="black" stroke="black" points="393.6,-169.5 403.6,-166 393.6,-162.5 393.6,-169.5"/>
</g>
<!-- TerminalModule -->
<g id="node7" class="node">
<title>TerminalModule</title>
<polygon fill="#8dd3c7" stroke="black" points="134.36,-122 131.36,-126 110.36,-126 107.36,-122 23.64,-122 23.64,-86 134.36,-86 134.36,-122"/>
<text text-anchor="middle" x="79" y="-99.8" font-family="Times,serif" font-size="14.00">TerminalModule</text>
</g>
<!-- TerminalModule&#45;&gt;TabsModule -->
<g id="edge6" class="edge">
<title>TerminalModule&#45;&gt;TabsModule</title>
<path fill="none" stroke="black" d="M79,-122.13C79,-142.57 79,-173 79,-173 79,-173 393.7,-173 393.7,-173"/>
<polygon fill="black" stroke="black" points="393.7,-176.5 403.7,-173 393.7,-169.5 393.7,-176.5"/>
</g>
<!-- TabService -->
<g id="node10" class="node">
<title>TabService</title>
<ellipse fill="#fdb462" stroke="black" cx="578" cy="-104" rx="55.01" ry="18"/>
<text text-anchor="middle" x="578" y="-99.8" font-family="Times,serif" font-size="14.00">TabService</text>
</g>
<!-- TabService&#45;&gt;TabsModule -->
<g id="edge10" class="edge">
<title>TabService&#45;&gt;TabsModule</title>
<path fill="none" stroke="black" d="M578,-122.03C578,-138.4 578,-160 578,-160 578,-160 500.62,-160 500.62,-160"/>
<polygon fill="black" stroke="black" points="500.62,-156.5 490.62,-160 500.62,-163.5 500.62,-156.5"/>
</g>
</g>
</svg>
