<?xml version="1.0" encoding="UTF-8" standalone="no"?>
<!DOCTYPE svg PUBLIC "-//W3C//DTD SVG 1.1//EN"
 "http://www.w3.org/Graphics/SVG/1.1/DTD/svg11.dtd">
<!-- Generated by graphviz version 2.47.0 (20210316.0004)
 -->
<!-- Title: dependencies Pages: 1 -->
<svg width="1554pt" height="284pt"
 viewBox="0.00 0.00 1554.00 284.00" xmlns="http://www.w3.org/2000/svg" xmlns:xlink="http://www.w3.org/1999/xlink">
<g id="graph0" class="graph" transform="scale(1 1) rotate(0) translate(4 280)">
<title>dependencies</title>
<polygon fill="white" stroke="transparent" points="-4,4 -4,-280 1550,-280 1550,4 -4,4"/>
<text text-anchor="start" x="752.01" y="-42.4" font-family="sans-serif" font-weight="bold" font-size="14.00">Legend</text>
<polygon fill="#ffffb3" stroke="transparent" points="539,-10 539,-30 559,-30 559,-10 539,-10"/>
<text text-anchor="start" x="562.63" y="-15.4" font-family="sans-serif" font-size="14.00"> &#160;Declarations</text>
<polygon fill="#8dd3c7" stroke="transparent" points="652,-10 652,-30 672,-30 672,-10 652,-10"/>
<text text-anchor="start" x="675.73" y="-15.4" font-family="sans-serif" font-size="14.00"> &#160;Module</text>
<polygon fill="#80b1d3" stroke="transparent" points="738,-10 738,-30 758,-30 758,-10 738,-10"/>
<text text-anchor="start" x="761.78" y="-15.4" font-family="sans-serif" font-size="14.00"> &#160;Bootstrap</text>
<polygon fill="#fdb462" stroke="transparent" points="835,-10 835,-30 855,-30 855,-10 835,-10"/>
<text text-anchor="start" x="858.67" y="-15.4" font-family="sans-serif" font-size="14.00"> &#160;Providers</text>
<polygon fill="#fb8072" stroke="transparent" points="931,-10 931,-30 951,-30 951,-10 931,-10"/>
<text text-anchor="start" x="954.73" y="-15.4" font-family="sans-serif" font-size="14.00"> &#160;Exports</text>
<g id="clust1" class="cluster">
<title>cluster_SettingsModule</title>
<polygon fill="none" stroke="black" stroke-dasharray="1,5" points="8,-70 8,-268 1538,-268 1538,-70 8,-70"/>
</g>
<g id="clust2" class="cluster">
<title>cluster_SettingsModule_declarations</title>
<polygon fill="none" stroke="black" points="356,-78 356,-130 1530,-130 1530,-78 356,-78"/>
</g>
<g id="clust11" class="cluster">
<title>cluster_SettingsModule_exports</title>
<polygon fill="none" stroke="black" points="347,-208 347,-260 1237,-260 1237,-208 347,-208"/>
</g>
<g id="clust10" class="cluster">
<title>cluster_SettingsModule_imports</title>
<polygon fill="none" stroke="black" points="182,-78 182,-130 348,-130 348,-78 182,-78"/>
</g>
<g id="clust13" class="cluster">
<title>cluster_SettingsModule_providers</title>
<polygon fill="none" stroke="black" points="16,-78 16,-130 174,-130 174,-78 16,-78"/>
</g>
<!-- AdvancedComponent -->
<g id="node1" class="node">
<title>AdvancedComponent</title>
<polygon fill="#ffffb3" stroke="black" points="1522.08,-122 1383.92,-122 1383.92,-86 1522.08,-86 1522.08,-122"/>
<text text-anchor="middle" x="1453" y="-99.8" font-family="Times,serif" font-size="14.00">AdvancedComponent</text>
</g>
<!-- SettingsModule -->
<g id="node8" class="node">
<title>SettingsModule</title>
<polygon fill="#8dd3c7" stroke="black" points="818.16,-187 815.16,-191 794.16,-191 791.16,-187 713.84,-187 713.84,-151 818.16,-151 818.16,-187"/>
<text text-anchor="middle" x="766" y="-164.8" font-family="Times,serif" font-size="14.00">SettingsModule</text>
</g>
<!-- AdvancedComponent&#45;&gt;SettingsModule -->
<g id="edge1" class="edge">
<title>AdvancedComponent&#45;&gt;SettingsModule</title>
<path fill="none" stroke="black" d="M1453,-122.22C1453,-142.37 1453,-172 1453,-172 1453,-172 828.2,-172 828.2,-172"/>
<polygon fill="black" stroke="black" points="828.2,-168.5 818.2,-172 828.2,-175.5 828.2,-168.5"/>
</g>
<!-- BackgroundSettingsComponent -->
<g id="node2" class="node">
<title>BackgroundSettingsComponent</title>
<polygon fill="#ffffb3" stroke="black" points="1366.37,-122 1171.63,-122 1171.63,-86 1366.37,-86 1366.37,-122"/>
<text text-anchor="middle" x="1269" y="-99.8" font-family="Times,serif" font-size="14.00">BackgroundSettingsComponent</text>
</g>
<!-- BackgroundSettingsComponent&#45;&gt;SettingsModule -->
<g id="edge2" class="edge">
<title>BackgroundSettingsComponent&#45;&gt;SettingsModule</title>
<path fill="none" stroke="black" d="M1200.18,-122.22C1200.18,-140.83 1200.18,-167 1200.18,-167 1200.18,-167 828.37,-167 828.37,-167"/>
<polygon fill="black" stroke="black" points="828.37,-163.5 818.37,-167 828.37,-170.5 828.37,-163.5"/>
</g>
<!-- CursorComponent -->
<g id="node3" class="node">
<title>CursorComponent</title>
<polygon fill="#ffffb3" stroke="black" points="1153.94,-122 1034.06,-122 1034.06,-86 1153.94,-86 1153.94,-122"/>
<text text-anchor="middle" x="1094" y="-99.8" font-family="Times,serif" font-size="14.00">CursorComponent</text>
</g>
<!-- CursorComponent&#45;&gt;SettingsModule -->
<g id="edge3" class="edge">
<title>CursorComponent&#45;&gt;SettingsModule</title>
<path fill="none" stroke="black" d="M1051.73,-122.03C1051.73,-139.06 1051.73,-162 1051.73,-162 1051.73,-162 828.41,-162 828.41,-162"/>
<polygon fill="black" stroke="black" points="828.41,-158.5 818.41,-162 828.41,-165.5 828.41,-158.5"/>
</g>
<!-- ForegroundComponent -->
<g id="node4" class="node">
<title>ForegroundComponent</title>
<polygon fill="#ffffb3" stroke="black" points="1016.15,-122 869.85,-122 869.85,-86 1016.15,-86 1016.15,-122"/>
<text text-anchor="middle" x="943" y="-99.8" font-family="Times,serif" font-size="14.00">ForegroundComponent</text>
</g>
<!-- ForegroundComponent&#45;&gt;SettingsModule -->
<g id="edge4" class="edge">
<title>ForegroundComponent&#45;&gt;SettingsModule</title>
<path fill="none" stroke="black" d="M967.82,-122.24C967.82,-137.57 967.82,-157 967.82,-157 967.82,-157 828.24,-157 828.24,-157"/>
<polygon fill="black" stroke="black" points="828.24,-153.5 818.24,-157 828.24,-160.5 828.24,-153.5"/>
</g>
<!-- GeneralSettingsComponent -->
<g id="node5" class="node">
<title>GeneralSettingsComponent</title>
<polygon fill="#ffffb3" stroke="black" points="851.25,-122 680.75,-122 680.75,-86 851.25,-86 851.25,-122"/>
<text text-anchor="middle" x="766" y="-99.8" font-family="Times,serif" font-size="14.00">GeneralSettingsComponent</text>
</g>
<!-- GeneralSettingsComponent&#45;&gt;SettingsModule -->
<g id="edge5" class="edge">
<title>GeneralSettingsComponent&#45;&gt;SettingsModule</title>
<path fill="none" stroke="black" d="M766,-122.11C766,-122.11 766,-140.99 766,-140.99"/>
<polygon fill="black" stroke="black" points="762.5,-140.99 766,-150.99 769.5,-140.99 762.5,-140.99"/>
</g>
<!-- MiscSettingsComponent -->
<g id="node6" class="node">
<title>MiscSettingsComponent</title>
<polygon fill="#ffffb3" stroke="black" points="662.44,-122 507.56,-122 507.56,-86 662.44,-86 662.44,-122"/>
<text text-anchor="middle" x="585" y="-99.8" font-family="Times,serif" font-size="14.00">MiscSettingsComponent</text>
</g>
<!-- MiscSettingsComponent&#45;&gt;SettingsModule -->
<g id="edge6" class="edge">
<title>MiscSettingsComponent&#45;&gt;SettingsModule</title>
<path fill="none" stroke="black" d="M609.91,-122.24C609.91,-137.57 609.91,-157 609.91,-157 609.91,-157 703.59,-157 703.59,-157"/>
<polygon fill="black" stroke="black" points="703.59,-160.5 713.59,-157 703.59,-153.5 703.59,-160.5"/>
</g>
<!-- SettingsComponent -->
<g id="node7" class="node">
<title>SettingsComponent</title>
<polygon fill="#ffffb3" stroke="black" points="490.45,-122 363.55,-122 363.55,-86 490.45,-86 490.45,-122"/>
<text text-anchor="middle" x="427" y="-99.8" font-family="Times,serif" font-size="14.00">SettingsComponent</text>
</g>
<!-- SettingsComponent&#45;&gt;SettingsModule -->
<g id="edge7" class="edge">
<title>SettingsComponent&#45;&gt;SettingsModule</title>
<path fill="none" stroke="black" d="M444.57,-122.03C444.57,-139.06 444.57,-162 444.57,-162 444.57,-162 703.64,-162 703.64,-162"/>
<polygon fill="black" stroke="black" points="703.64,-165.5 713.64,-162 703.64,-158.5 703.64,-165.5"/>
</g>
<!-- AdvancedComponent  -->
<g id="node10" class="node">
<title>AdvancedComponent </title>
<polygon fill="#fb8072" stroke="black" points="1228.58,-252 1087.42,-252 1087.42,-216 1228.58,-216 1228.58,-252"/>
<text text-anchor="middle" x="1158" y="-229.8" font-family="Times,serif" font-size="14.00">AdvancedComponent </text>
</g>
<!-- SettingsModule&#45;&gt;AdvancedComponent  -->
<g id="edge9" class="edge">
<title>SettingsModule&#45;&gt;AdvancedComponent </title>
<path fill="none" stroke="black" stroke-dasharray="5,2" d="M818.3,-177C916.9,-177 1120.46,-177 1120.46,-177 1120.46,-177 1120.46,-205.96 1120.46,-205.96"/>
<polygon fill="black" stroke="black" points="1116.96,-205.96 1120.46,-215.96 1123.96,-205.96 1116.96,-205.96"/>
</g>
<!-- BackgroundSettingsComponent  -->
<g id="node11" class="node">
<title>BackgroundSettingsComponent </title>
<polygon fill="#fb8072" stroke="black" points="1069.37,-252 870.63,-252 870.63,-216 1069.37,-216 1069.37,-252"/>
<text text-anchor="middle" x="970" y="-229.8" font-family="Times,serif" font-size="14.00">BackgroundSettingsComponent </text>
</g>
<!-- SettingsModule&#45;&gt;BackgroundSettingsComponent  -->
<g id="edge10" class="edge">
<title>SettingsModule&#45;&gt;BackgroundSettingsComponent </title>
<path fill="none" stroke="black" stroke-dasharray="5,2" d="M818.33,-182C862.75,-182 919.32,-182 919.32,-182 919.32,-182 919.32,-205.81 919.32,-205.81"/>
<polygon fill="black" stroke="black" points="915.82,-205.81 919.32,-215.81 922.82,-205.81 915.82,-205.81"/>
</g>
<!-- GeneralSettingsComponent  -->
<g id="node12" class="node">
<title>GeneralSettingsComponent </title>
<polygon fill="#fb8072" stroke="black" points="853.25,-252 678.75,-252 678.75,-216 853.25,-216 853.25,-252"/>
<text text-anchor="middle" x="766" y="-229.8" font-family="Times,serif" font-size="14.00">GeneralSettingsComponent </text>
</g>
<!-- SettingsModule&#45;&gt;GeneralSettingsComponent  -->
<g id="edge11" class="edge">
<title>SettingsModule&#45;&gt;GeneralSettingsComponent </title>
<path fill="none" stroke="black" stroke-dasharray="5,2" d="M766,-187.11C766,-187.11 766,-205.99 766,-205.99"/>
<polygon fill="black" stroke="black" points="762.5,-205.99 766,-215.99 769.5,-205.99 762.5,-205.99"/>
</g>
<!-- MiscSettingsComponent  -->
<g id="node13" class="node">
<title>MiscSettingsComponent </title>
<polygon fill="#fb8072" stroke="black" points="660.94,-252 503.06,-252 503.06,-216 660.94,-216 660.94,-252"/>
<text text-anchor="middle" x="582" y="-229.8" font-family="Times,serif" font-size="14.00">MiscSettingsComponent </text>
</g>
<!-- SettingsModule&#45;&gt;MiscSettingsComponent  -->
<g id="edge12" class="edge">
<title>SettingsModule&#45;&gt;MiscSettingsComponent </title>
<path fill="none" stroke="black" stroke-dasharray="5,2" d="M713.73,-182C652.36,-182 558.84,-182 558.84,-182 558.84,-182 558.84,-205.81 558.84,-205.81"/>
<polygon fill="black" stroke="black" points="555.34,-205.81 558.84,-215.81 562.34,-205.81 555.34,-205.81"/>
</g>
<!-- SettingsComponent  -->
<g id="node14" class="node">
<title>SettingsComponent </title>
<polygon fill="#fb8072" stroke="black" points="484.95,-252 355.05,-252 355.05,-216 484.95,-216 484.95,-252"/>
<text text-anchor="middle" x="420" y="-229.8" font-family="Times,serif" font-size="14.00">SettingsComponent </text>
</g>
<!-- SettingsModule&#45;&gt;SettingsComponent  -->
<g id="edge13" class="edge">
<title>SettingsModule&#45;&gt;SettingsComponent </title>
<path fill="none" stroke="black" stroke-dasharray="5,2" d="M713.77,-177C613.57,-177 404.18,-177 404.18,-177 404.18,-177 404.18,-205.96 404.18,-205.96"/>
<polygon fill="black" stroke="black" points="400.68,-205.96 404.18,-215.96 407.68,-205.96 400.68,-205.96"/>
</g>
<!-- SettingsRoutingModule -->
<g id="node9" class="node">
<title>SettingsRoutingModule</title>
<polygon fill="#8dd3c7" stroke="black" points="339.78,-122 336.78,-126 315.78,-126 312.78,-122 190.22,-122 190.22,-86 339.78,-86 339.78,-122"/>
<text text-anchor="middle" x="265" y="-99.8" font-family="Times,serif" font-size="14.00">SettingsRoutingModule</text>
</g>
<!-- SettingsRoutingModule&#45;&gt;SettingsModule -->
<g id="edge8" class="edge">
<title>SettingsRoutingModule&#45;&gt;SettingsModule</title>
<path fill="none" stroke="black" d="M265,-122.22C265,-140.83 265,-167 265,-167 265,-167 703.8,-167 703.8,-167"/>
<polygon fill="black" stroke="black" points="703.8,-170.5 713.8,-167 703.8,-163.5 703.8,-170.5"/>
</g>
<!-- SettingsService -->
<g id="node15" class="node">
<title>SettingsService</title>
<ellipse fill="#fdb462" stroke="black" cx="95" cy="-104" rx="71.22" ry="18"/>
<text text-anchor="middle" x="95" y="-99.8" font-family="Times,serif" font-size="14.00">SettingsService</text>
</g>
<!-- SettingsService&#45;&gt;SettingsModule -->
<g id="edge14" class="edge">
<title>SettingsService&#45;&gt;SettingsModule</title>
<path fill="none" stroke="black" d="M95,-122.22C95,-142.37 95,-172 95,-172 95,-172 703.63,-172 703.63,-172"/>
<polygon fill="black" stroke="black" points="703.63,-175.5 713.63,-172 703.63,-168.5 703.63,-175.5"/>
</g>
</g>
</svg>
