<?xml version="1.0" encoding="UTF-8" standalone="no"?>
<!DOCTYPE svg PUBLIC "-//W3C//DTD SVG 1.1//EN"
 "http://www.w3.org/Graphics/SVG/1.1/DTD/svg11.dtd">
<!-- Generated by graphviz version 2.47.0 (20210316.0004)
 -->
<!-- Title: dependencies Pages: 1 -->
<svg width="3229pt" height="493pt"
 viewBox="0.00 0.00 3229.00 493.00" xmlns="http://www.w3.org/2000/svg" xmlns:xlink="http://www.w3.org/1999/xlink">
<g id="graph0" class="graph" transform="scale(1 1) rotate(0) translate(4 489)">
<title>dependencies</title>
<polygon fill="white" stroke="transparent" points="-4,4 -4,-489 3225,-489 3225,4 -4,4"/>
<text text-anchor="start" x="1589.51" y="-42.4" font-family="sans-serif" font-weight="bold" font-size="14.00">Legend</text>
<polygon fill="#ffffb3" stroke="transparent" points="1376.5,-10 1376.5,-30 1396.5,-30 1396.5,-10 1376.5,-10"/>
<text text-anchor="start" x="1400.13" y="-15.4" font-family="sans-serif" font-size="14.00"> &#160;Declarations</text>
<polygon fill="#8dd3c7" stroke="transparent" points="1489.5,-10 1489.5,-30 1509.5,-30 1509.5,-10 1489.5,-10"/>
<text text-anchor="start" x="1513.23" y="-15.4" font-family="sans-serif" font-size="14.00"> &#160;Module</text>
<polygon fill="#80b1d3" stroke="transparent" points="1575.5,-10 1575.5,-30 1595.5,-30 1595.5,-10 1575.5,-10"/>
<text text-anchor="start" x="1599.28" y="-15.4" font-family="sans-serif" font-size="14.00"> &#160;Bootstrap</text>
<polygon fill="#fdb462" stroke="transparent" points="1672.5,-10 1672.5,-30 1692.5,-30 1692.5,-10 1672.5,-10"/>
<text text-anchor="start" x="1696.17" y="-15.4" font-family="sans-serif" font-size="14.00"> &#160;Providers</text>
<polygon fill="#fb8072" stroke="transparent" points="1768.5,-10 1768.5,-30 1788.5,-30 1788.5,-10 1768.5,-10"/>
<text text-anchor="start" x="1792.23" y="-15.4" font-family="sans-serif" font-size="14.00"> &#160;Exports</text>
<g id="clust9" class="cluster">
<title>cluster_SettingsModule</title>
<polygon fill="none" stroke="black" stroke-dasharray="1,5" points="1683,-70 1683,-271 3213,-271 3213,-70 1683,-70"/>
</g>
<g id="clust21" class="cluster">
<title>cluster_SettingsModule_providers</title>
<polygon fill="none" stroke="black" points="1691,-78 1691,-130 1849,-130 1849,-78 1691,-78"/>
</g>
<g id="clust19" class="cluster">
<title>cluster_SettingsModule_exports</title>
<polygon fill="none" stroke="black" points="1862,-211 1862,-263 2752,-263 2752,-211 1862,-211"/>
</g>
<g id="clust10" class="cluster">
<title>cluster_SettingsModule_declarations</title>
<polygon fill="none" stroke="black" points="2031,-78 2031,-130 3205,-130 3205,-78 2031,-78"/>
</g>
<g id="clust18" class="cluster">
<title>cluster_SettingsModule_imports</title>
<polygon fill="none" stroke="black" points="1857,-78 1857,-130 2023,-130 2023,-78 1857,-78"/>
</g>
<g id="clust49" class="cluster">
<title>cluster_TerminalModule</title>
<polygon fill="none" stroke="black" stroke-dasharray="1,5" points="352,-70 352,-347 906,-347 906,-70 352,-70"/>
</g>
<g id="clust50" class="cluster">
<title>cluster_TerminalModule_declarations</title>
<polygon fill="none" stroke="black" points="608,-143 608,-195 898,-195 898,-143 608,-143"/>
</g>
<g id="clust51" class="cluster">
<title>cluster_TerminalModule_TerminalComponent_providers</title>
<polygon fill="none" stroke="black" points="734,-78 734,-130 898,-130 898,-78 734,-78"/>
</g>
<g id="clust54" class="cluster">
<title>cluster_TerminalModule_exports</title>
<polygon fill="none" stroke="black" points="602,-287 602,-339 754,-339 754,-287 602,-287"/>
</g>
<g id="clust53" class="cluster">
<title>cluster_TerminalModule_imports</title>
<polygon fill="none" stroke="black" points="360,-143 360,-195 600,-195 600,-143 360,-143"/>
</g>
<g id="clust34" class="cluster">
<title>cluster_SnippetsModule</title>
<polygon fill="none" stroke="black" stroke-dasharray="1,5" points="8,-203 8,-347 344,-347 344,-203 8,-203"/>
</g>
<g id="clust36" class="cluster">
<title>cluster_SnippetsModule_SnippetsComponent_providers</title>
<polygon fill="none" stroke="black" points="174,-211 174,-339 336,-339 336,-211 174,-211"/>
</g>
<g id="clust38" class="cluster">
<title>cluster_SnippetsModule_exports</title>
<polygon fill="none" stroke="black" points="16,-211 16,-263 166,-263 166,-211 16,-211"/>
</g>
<g id="clust1" class="cluster">
<title>cluster_AppModule</title>
<polygon fill="none" stroke="black" stroke-dasharray="1,5" points="914,-279 914,-477 1326,-477 1326,-279 914,-279"/>
</g>
<g id="clust7" class="cluster">
<title>cluster_AppModule_bootstrap</title>
<polygon fill="none" stroke="black" points="1145,-417 1145,-469 1269,-469 1269,-417 1145,-417"/>
</g>
<g id="clust5" class="cluster">
<title>cluster_AppModule_imports</title>
<polygon fill="none" stroke="black" points="1216,-287 1216,-339 1318,-339 1318,-287 1216,-287"/>
</g>
<g id="clust2" class="cluster">
<title>cluster_AppModule_declarations</title>
<polygon fill="none" stroke="black" points="922,-287 922,-339 1208,-339 1208,-287 922,-287"/>
</g>
<g id="clust6" class="cluster">
<title>cluster_AppModule_exports</title>
<polygon fill="none" stroke="black" points="971,-417 971,-469 1137,-469 1137,-417 971,-417"/>
</g>
<g id="clust41" class="cluster">
<title>cluster_TabsModule</title>
<polygon fill="none" stroke="black" stroke-dasharray="1,5" points="942,-203 942,-271 1675,-271 1675,-203 942,-203"/>
</g>
<g id="clust48" class="cluster">
<title>cluster_TabsModule_providers</title>
<polygon fill="none" stroke="black" points="1541,-211 1541,-263 1667,-263 1667,-211 1541,-211"/>
</g>
<g id="clust47" class="cluster">
<title>cluster_TabsModule_bootstrap</title>
<polygon fill="none" stroke="black" points="1405,-211 1405,-263 1533,-263 1533,-211 1405,-211"/>
</g>
<g id="clust46" class="cluster">
<title>cluster_TabsModule_exports</title>
<polygon fill="none" stroke="black" points="1239,-211 1239,-263 1397,-263 1397,-211 1239,-211"/>
</g>
<g id="clust42" class="cluster">
<title>cluster_TabsModule_declarations</title>
<polygon fill="none" stroke="black" points="950,-211 950,-263 1231,-263 1231,-211 950,-211"/>
</g>
<!-- AppComponent -->
<g id="node1" class="node">
<title>AppComponent</title>
<polygon fill="#ffffb3" stroke="black" points="1199.94,-331 1094.06,-331 1094.06,-295 1199.94,-295 1199.94,-331"/>
<text text-anchor="middle" x="1147" y="-308.8" font-family="Times,serif" font-size="14.00">AppComponent</text>
</g>
<!-- AppModule -->
<g id="node3" class="node">
<title>AppModule</title>
<polygon fill="#8dd3c7" stroke="black" points="1141.66,-396 1138.66,-400 1117.66,-400 1114.66,-396 1058.34,-396 1058.34,-360 1141.66,-360 1141.66,-396"/>
<text text-anchor="middle" x="1100" y="-373.8" font-family="Times,serif" font-size="14.00">AppModule</text>
</g>
<!-- AppComponent&#45;&gt;AppModule -->
<g id="edge1" class="edge">
<title>AppComponent&#45;&gt;AppModule</title>
<path fill="none" stroke="black" d="M1118.05,-331.11C1118.05,-331.11 1118.05,-349.99 1118.05,-349.99"/>
<polygon fill="black" stroke="black" points="1114.55,-349.99 1118.05,-359.99 1121.55,-349.99 1114.55,-349.99"/>
</g>
<!-- AppTopbarComponent -->
<g id="node2" class="node">
<title>AppTopbarComponent</title>
<polygon fill="#ffffb3" stroke="black" points="1075.87,-331 930.13,-331 930.13,-295 1075.87,-295 1075.87,-331"/>
<text text-anchor="middle" x="1003" y="-308.8" font-family="Times,serif" font-size="14.00">AppTopbarComponent</text>
</g>
<!-- AppTopbarComponent&#45;&gt;AppModule -->
<g id="edge2" class="edge">
<title>AppTopbarComponent&#45;&gt;AppModule</title>
<path fill="none" stroke="black" d="M1067.05,-331.11C1067.05,-331.11 1067.05,-349.99 1067.05,-349.99"/>
<polygon fill="black" stroke="black" points="1063.55,-349.99 1067.05,-359.99 1070.55,-349.99 1063.55,-349.99"/>
</g>
<!-- AppTopbarComponent  -->
<g id="node6" class="node">
<title>AppTopbarComponent </title>
<polygon fill="#fb8072" stroke="black" points="1128.87,-461 979.13,-461 979.13,-425 1128.87,-425 1128.87,-461"/>
<text text-anchor="middle" x="1054" y="-438.8" font-family="Times,serif" font-size="14.00">AppTopbarComponent </text>
</g>
<!-- AppModule&#45;&gt;AppTopbarComponent  -->
<g id="edge5" class="edge">
<title>AppModule&#45;&gt;AppTopbarComponent </title>
<path fill="none" stroke="black" stroke-dasharray="5,2" d="M1093.43,-396.11C1093.43,-396.11 1093.43,-414.99 1093.43,-414.99"/>
<polygon fill="black" stroke="black" points="1089.93,-414.99 1093.43,-424.99 1096.93,-414.99 1089.93,-414.99"/>
</g>
<!-- AppComponent  -->
<g id="node7" class="node">
<title>AppComponent </title>
<polygon fill="#80b1d3" stroke="black" points="1261.44,-461 1152.56,-461 1152.56,-425 1261.44,-425 1261.44,-461"/>
<text text-anchor="middle" x="1207" y="-438.8" font-family="Times,serif" font-size="14.00">AppComponent </text>
</g>
<!-- AppModule&#45;&gt;AppComponent  -->
<g id="edge6" class="edge">
<title>AppModule&#45;&gt;AppComponent </title>
<path fill="none" stroke="black" stroke-dasharray="1,5" d="M1135.26,-396.11C1135.26,-415.34 1135.26,-443 1135.26,-443 1135.26,-443 1142.26,-443 1142.26,-443"/>
<polygon fill="black" stroke="black" points="1142.26,-446.5 1152.26,-443 1142.26,-439.5 1142.26,-446.5"/>
</g>
<!-- SharedModule -->
<g id="node4" class="node">
<title>SharedModule</title>
<polygon fill="#8dd3c7" stroke="black" points="592.42,-187 589.42,-191 568.42,-191 565.42,-187 493.58,-187 493.58,-151 592.42,-151 592.42,-187"/>
<text text-anchor="middle" x="543" y="-164.8" font-family="Times,serif" font-size="14.00">SharedModule</text>
</g>
<!-- SharedModule&#45;&gt;AppModule -->
<g id="edge3" class="edge">
<title>SharedModule&#45;&gt;AppModule</title>
<path fill="none" stroke="black" d="M518.39,-187.18C518.39,-238.03 518.39,-378 518.39,-378 518.39,-378 1048.17,-378 1048.17,-378"/>
<polygon fill="black" stroke="black" points="1048.17,-381.5 1058.17,-378 1048.17,-374.5 1048.17,-381.5"/>
</g>
<!-- TabsModule -->
<g id="node5" class="node">
<title>TabsModule</title>
<polygon fill="#8dd3c7" stroke="black" points="1310.26,-331 1307.26,-335 1286.26,-335 1283.26,-331 1223.74,-331 1223.74,-295 1310.26,-295 1310.26,-331"/>
<text text-anchor="middle" x="1267" y="-308.8" font-family="Times,serif" font-size="14.00">TabsModule</text>
</g>
<!-- SharedModule&#45;&gt;TabsModule -->
<g id="edge27" class="edge">
<title>SharedModule&#45;&gt;TabsModule</title>
<path fill="none" stroke="black" d="M543,-187.16C543,-218.41 543,-279 543,-279 543,-279 1231.35,-279 1231.35,-279 1231.35,-279 1231.35,-284.81 1231.35,-284.81"/>
<polygon fill="black" stroke="black" points="1227.85,-284.81 1231.35,-294.81 1234.85,-284.81 1227.85,-284.81"/>
</g>
<!-- TerminalModule -->
<g id="node29" class="node">
<title>TerminalModule</title>
<polygon fill="#8dd3c7" stroke="black" points="733.36,-255 730.36,-259 709.36,-259 706.36,-255 622.64,-255 622.64,-219 733.36,-219 733.36,-255"/>
<text text-anchor="middle" x="678" y="-232.8" font-family="Times,serif" font-size="14.00">TerminalModule</text>
</g>
<!-- SharedModule&#45;&gt;TerminalModule -->
<g id="edge38" class="edge">
<title>SharedModule&#45;&gt;TerminalModule</title>
<path fill="none" stroke="black" d="M567.61,-187.27C567.61,-205.56 567.61,-231 567.61,-231 567.61,-231 612.48,-231 612.48,-231"/>
<polygon fill="black" stroke="black" points="612.48,-234.5 622.48,-231 612.48,-227.5 612.48,-234.5"/>
</g>
<!-- TabsModule&#45;&gt;AppModule -->
<g id="edge4" class="edge">
<title>TabsModule&#45;&gt;AppModule</title>
<path fill="none" stroke="black" d="M1242.54,-331.11C1242.54,-350.34 1242.54,-378 1242.54,-378 1242.54,-378 1152,-378 1152,-378"/>
<polygon fill="black" stroke="black" points="1152,-374.5 1142,-378 1152,-381.5 1152,-374.5"/>
</g>
<!-- SplitPanelComponent  -->
<g id="node30" class="node">
<title>SplitPanelComponent </title>
<polygon fill="#fb8072" stroke="black" points="1389.39,-255 1246.61,-255 1246.61,-219 1389.39,-219 1389.39,-255"/>
<text text-anchor="middle" x="1318" y="-232.8" font-family="Times,serif" font-size="14.00">SplitPanelComponent </text>
</g>
<!-- TabsModule&#45;&gt;SplitPanelComponent  -->
<g id="edge30" class="edge">
<title>TabsModule&#45;&gt;SplitPanelComponent </title>
<path fill="none" stroke="black" stroke-dasharray="5,2" d="M1278.59,-294.99C1278.59,-294.99 1278.59,-265.15 1278.59,-265.15"/>
<polygon fill="black" stroke="black" points="1282.09,-265.15 1278.59,-255.15 1275.09,-265.15 1282.09,-265.15"/>
</g>
<!-- TabsComponent  -->
<g id="node31" class="node">
<title>TabsComponent </title>
<polygon fill="#fb8072" stroke="black" points="1525.04,-255 1412.96,-255 1412.96,-219 1525.04,-219 1525.04,-255"/>
<text text-anchor="middle" x="1469" y="-232.8" font-family="Times,serif" font-size="14.00">TabsComponent </text>
</g>
<!-- TabsModule&#45;&gt;TabsComponent  -->
<g id="edge31" class="edge">
<title>TabsModule&#45;&gt;TabsComponent </title>
<path fill="none" stroke="black" stroke-dasharray="5,2" d="M1310.33,-313C1374.6,-313 1487.67,-313 1487.67,-313 1487.67,-313 1487.67,-265.01 1487.67,-265.01"/>
<polygon fill="black" stroke="black" points="1491.17,-265.01 1487.67,-255.01 1484.17,-265.01 1491.17,-265.01"/>
</g>
<!-- TabsModule&#45;&gt;TabsComponent  -->
<g id="edge32" class="edge">
<title>TabsModule&#45;&gt;TabsComponent </title>
<path fill="none" stroke="black" stroke-dasharray="1,5" d="M1310.45,-304C1364.66,-304 1450.33,-304 1450.33,-304 1450.33,-304 1450.33,-265.31 1450.33,-265.31"/>
<polygon fill="black" stroke="black" points="1453.83,-265.31 1450.33,-255.31 1446.83,-265.31 1453.83,-265.31"/>
</g>
<!-- AdvancedComponent -->
<g id="node8" class="node">
<title>AdvancedComponent</title>
<polygon fill="#ffffb3" stroke="black" points="2177.08,-122 2038.92,-122 2038.92,-86 2177.08,-86 2177.08,-122"/>
<text text-anchor="middle" x="2108" y="-99.8" font-family="Times,serif" font-size="14.00">AdvancedComponent</text>
</g>
<!-- SettingsModule -->
<g id="node15" class="node">
<title>SettingsModule</title>
<polygon fill="#8dd3c7" stroke="black" points="2389.16,-187 2386.16,-191 2365.16,-191 2362.16,-187 2284.84,-187 2284.84,-151 2389.16,-151 2389.16,-187"/>
<text text-anchor="middle" x="2337" y="-164.8" font-family="Times,serif" font-size="14.00">SettingsModule</text>
</g>
<!-- AdvancedComponent&#45;&gt;SettingsModule -->
<g id="edge7" class="edge">
<title>AdvancedComponent&#45;&gt;SettingsModule</title>
<path fill="none" stroke="black" d="M2111.46,-122.03C2111.46,-138.4 2111.46,-160 2111.46,-160 2111.46,-160 2274.69,-160 2274.69,-160"/>
<polygon fill="black" stroke="black" points="2274.69,-163.5 2284.69,-160 2274.69,-156.5 2274.69,-163.5"/>
</g>
<!-- BackgroundSettingsComponent -->
<g id="node9" class="node">
<title>BackgroundSettingsComponent</title>
<polygon fill="#ffffb3" stroke="black" points="3197.37,-122 3002.63,-122 3002.63,-86 3197.37,-86 3197.37,-122"/>
<text text-anchor="middle" x="3100" y="-99.8" font-family="Times,serif" font-size="14.00">BackgroundSettingsComponent</text>
</g>
<!-- BackgroundSettingsComponent&#45;&gt;SettingsModule -->
<g id="edge8" class="edge">
<title>BackgroundSettingsComponent&#45;&gt;SettingsModule</title>
<path fill="none" stroke="black" d="M3100,-122.22C3100,-142.37 3100,-172 3100,-172 3100,-172 2399.44,-172 2399.44,-172"/>
<polygon fill="black" stroke="black" points="2399.44,-168.5 2389.44,-172 2399.44,-175.5 2399.44,-168.5"/>
</g>
<!-- CursorComponent -->
<g id="node10" class="node">
<title>CursorComponent</title>
<polygon fill="#ffffb3" stroke="black" points="2984.94,-122 2865.06,-122 2865.06,-86 2984.94,-86 2984.94,-122"/>
<text text-anchor="middle" x="2925" y="-99.8" font-family="Times,serif" font-size="14.00">CursorComponent</text>
</g>
<!-- CursorComponent&#45;&gt;SettingsModule -->
<g id="edge9" class="edge">
<title>CursorComponent&#45;&gt;SettingsModule</title>
<path fill="none" stroke="black" d="M2925,-122.22C2925,-140.83 2925,-167 2925,-167 2925,-167 2399.18,-167 2399.18,-167"/>
<polygon fill="black" stroke="black" points="2399.18,-163.5 2389.18,-167 2399.18,-170.5 2399.18,-163.5"/>
</g>
<!-- ForegroundComponent -->
<g id="node11" class="node">
<title>ForegroundComponent</title>
<polygon fill="#ffffb3" stroke="black" points="2847.15,-122 2700.85,-122 2700.85,-86 2847.15,-86 2847.15,-122"/>
<text text-anchor="middle" x="2774" y="-99.8" font-family="Times,serif" font-size="14.00">ForegroundComponent</text>
</g>
<!-- ForegroundComponent&#45;&gt;SettingsModule -->
<g id="edge10" class="edge">
<title>ForegroundComponent&#45;&gt;SettingsModule</title>
<path fill="none" stroke="black" d="M2722.32,-122.03C2722.32,-139.06 2722.32,-162 2722.32,-162 2722.32,-162 2399.37,-162 2399.37,-162"/>
<polygon fill="black" stroke="black" points="2399.37,-158.5 2389.37,-162 2399.37,-165.5 2399.37,-158.5"/>
</g>
<!-- GeneralSettingsComponent -->
<g id="node12" class="node">
<title>GeneralSettingsComponent</title>
<polygon fill="#ffffb3" stroke="black" points="2682.25,-122 2511.75,-122 2511.75,-86 2682.25,-86 2682.25,-122"/>
<text text-anchor="middle" x="2597" y="-99.8" font-family="Times,serif" font-size="14.00">GeneralSettingsComponent</text>
</g>
<!-- GeneralSettingsComponent&#45;&gt;SettingsModule -->
<g id="edge11" class="edge">
<title>GeneralSettingsComponent&#45;&gt;SettingsModule</title>
<path fill="none" stroke="black" d="M2553.71,-122.24C2553.71,-137.57 2553.71,-157 2553.71,-157 2553.71,-157 2399.18,-157 2399.18,-157"/>
<polygon fill="black" stroke="black" points="2399.18,-153.5 2389.18,-157 2399.18,-160.5 2399.18,-153.5"/>
</g>
<!-- MiscSettingsComponent -->
<g id="node13" class="node">
<title>MiscSettingsComponent</title>
<polygon fill="#ffffb3" stroke="black" points="2493.44,-122 2338.56,-122 2338.56,-86 2493.44,-86 2493.44,-122"/>
<text text-anchor="middle" x="2416" y="-99.8" font-family="Times,serif" font-size="14.00">MiscSettingsComponent</text>
</g>
<!-- MiscSettingsComponent&#45;&gt;SettingsModule -->
<g id="edge12" class="edge">
<title>MiscSettingsComponent&#45;&gt;SettingsModule</title>
<path fill="none" stroke="black" d="M2364.06,-122.11C2364.06,-122.11 2364.06,-140.99 2364.06,-140.99"/>
<polygon fill="black" stroke="black" points="2360.56,-140.99 2364.06,-150.99 2367.56,-140.99 2360.56,-140.99"/>
</g>
<!-- SettingsComponent -->
<g id="node14" class="node">
<title>SettingsComponent</title>
<polygon fill="#ffffb3" stroke="black" points="2321.45,-122 2194.55,-122 2194.55,-86 2321.45,-86 2321.45,-122"/>
<text text-anchor="middle" x="2258" y="-99.8" font-family="Times,serif" font-size="14.00">SettingsComponent</text>
</g>
<!-- SettingsComponent&#45;&gt;SettingsModule -->
<g id="edge13" class="edge">
<title>SettingsComponent&#45;&gt;SettingsModule</title>
<path fill="none" stroke="black" d="M2302.95,-122.11C2302.95,-122.11 2302.95,-140.99 2302.95,-140.99"/>
<polygon fill="black" stroke="black" points="2299.45,-140.99 2302.95,-150.99 2306.45,-140.99 2299.45,-140.99"/>
</g>
<!-- SettingsModule&#45;&gt;TabsModule -->
<g id="edge26" class="edge">
<title>SettingsModule&#45;&gt;TabsModule</title>
<path fill="none" stroke="black" d="M2284.6,-174C2066.62,-174 1242.94,-174 1242.94,-174 1242.94,-174 1242.94,-284.83 1242.94,-284.83"/>
<polygon fill="black" stroke="black" points="1239.44,-284.83 1242.94,-294.83 1246.44,-284.83 1239.44,-284.83"/>
</g>
<!-- AdvancedComponent  -->
<g id="node17" class="node">
<title>AdvancedComponent </title>
<polygon fill="#fb8072" stroke="black" points="2595.58,-255 2454.42,-255 2454.42,-219 2595.58,-219 2595.58,-255"/>
<text text-anchor="middle" x="2525" y="-232.8" font-family="Times,serif" font-size="14.00">AdvancedComponent </text>
</g>
<!-- SettingsModule&#45;&gt;AdvancedComponent  -->
<g id="edge15" class="edge">
<title>SettingsModule&#45;&gt;AdvancedComponent </title>
<path fill="none" stroke="black" stroke-dasharray="5,2" d="M2389.47,-182C2428.02,-182 2473.71,-182 2473.71,-182 2473.71,-182 2473.71,-208.99 2473.71,-208.99"/>
<polygon fill="black" stroke="black" points="2470.21,-208.99 2473.71,-218.99 2477.21,-208.99 2470.21,-208.99"/>
</g>
<!-- BackgroundSettingsComponent  -->
<g id="node18" class="node">
<title>BackgroundSettingsComponent </title>
<polygon fill="#fb8072" stroke="black" points="2436.37,-255 2237.63,-255 2237.63,-219 2436.37,-219 2436.37,-255"/>
<text text-anchor="middle" x="2337" y="-232.8" font-family="Times,serif" font-size="14.00">BackgroundSettingsComponent </text>
</g>
<!-- SettingsModule&#45;&gt;BackgroundSettingsComponent  -->
<g id="edge16" class="edge">
<title>SettingsModule&#45;&gt;BackgroundSettingsComponent </title>
<path fill="none" stroke="black" stroke-dasharray="5,2" d="M2337,-187.22C2337,-187.22 2337,-208.73 2337,-208.73"/>
<polygon fill="black" stroke="black" points="2333.5,-208.73 2337,-218.73 2340.5,-208.73 2333.5,-208.73"/>
</g>
<!-- GeneralSettingsComponent  -->
<g id="node19" class="node">
<title>GeneralSettingsComponent </title>
<polygon fill="#fb8072" stroke="black" points="2220.25,-255 2045.75,-255 2045.75,-219 2220.25,-219 2220.25,-255"/>
<text text-anchor="middle" x="2133" y="-232.8" font-family="Times,serif" font-size="14.00">GeneralSettingsComponent </text>
</g>
<!-- SettingsModule&#45;&gt;GeneralSettingsComponent  -->
<g id="edge17" class="edge">
<title>SettingsModule&#45;&gt;GeneralSettingsComponent </title>
<path fill="none" stroke="black" stroke-dasharray="5,2" d="M2284.68,-183C2248.73,-183 2207.45,-183 2207.45,-183 2207.45,-183 2207.45,-208.72 2207.45,-208.72"/>
<polygon fill="black" stroke="black" points="2203.95,-208.72 2207.45,-218.72 2210.95,-208.72 2203.95,-208.72"/>
</g>
<!-- MiscSettingsComponent  -->
<g id="node20" class="node">
<title>MiscSettingsComponent </title>
<polygon fill="#fb8072" stroke="black" points="2027.94,-255 1870.06,-255 1870.06,-219 2027.94,-219 2027.94,-255"/>
<text text-anchor="middle" x="1949" y="-232.8" font-family="Times,serif" font-size="14.00">MiscSettingsComponent </text>
</g>
<!-- SettingsModule&#45;&gt;MiscSettingsComponent  -->
<g id="edge18" class="edge">
<title>SettingsModule&#45;&gt;MiscSettingsComponent </title>
<path fill="none" stroke="black" stroke-dasharray="5,2" d="M2284.54,-178C2194.8,-178 2021.43,-178 2021.43,-178 2021.43,-178 2021.43,-208.98 2021.43,-208.98"/>
<polygon fill="black" stroke="black" points="2017.93,-208.98 2021.43,-218.98 2024.93,-208.98 2017.93,-208.98"/>
</g>
<!-- SettingsComponent  -->
<g id="node21" class="node">
<title>SettingsComponent </title>
<polygon fill="#fb8072" stroke="black" points="2743.95,-255 2614.05,-255 2614.05,-219 2743.95,-219 2743.95,-255"/>
<text text-anchor="middle" x="2679" y="-232.8" font-family="Times,serif" font-size="14.00">SettingsComponent </text>
</g>
<!-- SettingsModule&#45;&gt;SettingsComponent  -->
<g id="edge19" class="edge">
<title>SettingsModule&#45;&gt;SettingsComponent </title>
<path fill="none" stroke="black" stroke-dasharray="5,2" d="M2389.44,-177C2478.13,-177 2648.2,-177 2648.2,-177 2648.2,-177 2648.2,-209 2648.2,-209"/>
<polygon fill="black" stroke="black" points="2644.7,-209 2648.2,-219 2651.7,-209 2644.7,-209"/>
</g>
<!-- SettingsRoutingModule -->
<g id="node16" class="node">
<title>SettingsRoutingModule</title>
<polygon fill="#8dd3c7" stroke="black" points="2014.78,-122 2011.78,-126 1990.78,-126 1987.78,-122 1865.22,-122 1865.22,-86 2014.78,-86 2014.78,-122"/>
<text text-anchor="middle" x="1940" y="-99.8" font-family="Times,serif" font-size="14.00">SettingsRoutingModule</text>
</g>
<!-- SettingsRoutingModule&#45;&gt;SettingsModule -->
<g id="edge14" class="edge">
<title>SettingsRoutingModule&#45;&gt;SettingsModule</title>
<path fill="none" stroke="black" d="M1942.46,-122.3C1942.46,-140.27 1942.46,-165 1942.46,-165 1942.46,-165 2274.61,-165 2274.61,-165"/>
<polygon fill="black" stroke="black" points="2274.61,-168.5 2284.61,-165 2274.61,-161.5 2274.61,-168.5"/>
</g>
<!-- SettingsService -->
<g id="node22" class="node">
<title>SettingsService</title>
<ellipse fill="#fdb462" stroke="black" cx="1770" cy="-104" rx="71.22" ry="18"/>
<text text-anchor="middle" x="1770" y="-99.8" font-family="Times,serif" font-size="14.00">SettingsService</text>
</g>
<!-- SettingsService&#45;&gt;SettingsModule -->
<g id="edge20" class="edge">
<title>SettingsService&#45;&gt;SettingsModule</title>
<path fill="none" stroke="black" d="M1793.7,-121.08C1793.7,-140.34 1793.7,-169 1793.7,-169 1793.7,-169 2274.41,-169 2274.41,-169"/>
<polygon fill="black" stroke="black" points="2274.41,-172.5 2284.41,-169 2274.41,-165.5 2274.41,-172.5"/>
</g>
<!-- TerminalComponent -->
<g id="node33" class="node">
<title>TerminalComponent</title>
<polygon fill="#ffffb3" stroke="black" points="890.15,-187 757.85,-187 757.85,-151 890.15,-151 890.15,-187"/>
<text text-anchor="middle" x="824" y="-164.8" font-family="Times,serif" font-size="14.00">TerminalComponent</text>
</g>
<!-- SettingsService&#45;&gt;TerminalComponent -->
<g id="edge36" class="edge">
<title>SettingsService&#45;&gt;TerminalComponent</title>
<path fill="none" stroke="black" d="M1746.3,-121.03C1746.3,-136.19 1746.3,-156 1746.3,-156 1746.3,-156 900.33,-156 900.33,-156"/>
<polygon fill="black" stroke="black" points="900.33,-152.5 890.33,-156 900.33,-159.5 900.33,-152.5"/>
</g>
<!-- SnippetsComponent -->
<g id="node23" class="node">
<title>SnippetsComponent</title>
<polygon fill="#ffffb3" stroke="black" points="323.56,-331 194.44,-331 194.44,-295 323.56,-295 323.56,-331"/>
<text text-anchor="middle" x="259" y="-308.8" font-family="Times,serif" font-size="14.00">SnippetsComponent</text>
</g>
<!-- SnippetsModule -->
<g id="node24" class="node">
<title>SnippetsModule</title>
<polygon fill="#8dd3c7" stroke="black" points="475.77,-187 472.77,-191 451.77,-191 448.77,-187 368.23,-187 368.23,-151 475.77,-151 475.77,-187"/>
<text text-anchor="middle" x="422" y="-164.8" font-family="Times,serif" font-size="14.00">SnippetsModule</text>
</g>
<!-- SnippetsComponent&#45;&gt;SnippetsModule -->
<g id="edge21" class="edge">
<title>SnippetsComponent&#45;&gt;SnippetsModule</title>
<path fill="none" stroke="black" d="M323.84,-313C358.88,-313 395.06,-313 395.06,-313 395.06,-313 395.06,-197.24 395.06,-197.24"/>
<polygon fill="black" stroke="black" points="398.56,-197.24 395.06,-187.24 391.56,-197.24 398.56,-197.24"/>
</g>
<!-- SnippetsModule&#45;&gt;TabsModule -->
<g id="edge28" class="edge">
<title>SnippetsModule&#45;&gt;TabsModule</title>
<path fill="none" stroke="black" d="M422,-187.18C422,-220.28 422,-287 422,-287 422,-287 1227.48,-287 1227.48,-287 1227.48,-287 1227.48,-287.79 1227.48,-287.79"/>
<polygon fill="black" stroke="black" points="1223.98,-284.94 1227.48,-294.94 1230.98,-284.94 1223.98,-284.94"/>
</g>
<!-- SnippetsComponent  -->
<g id="node26" class="node">
<title>SnippetsComponent </title>
<polygon fill="#fb8072" stroke="black" points="157.56,-255 24.44,-255 24.44,-219 157.56,-219 157.56,-255"/>
<text text-anchor="middle" x="91" y="-232.8" font-family="Times,serif" font-size="14.00">SnippetsComponent </text>
</g>
<!-- SnippetsModule&#45;&gt;SnippetsComponent  -->
<g id="edge23" class="edge">
<title>SnippetsModule&#45;&gt;SnippetsComponent </title>
<path fill="none" stroke="black" stroke-dasharray="5,2" d="M368.08,-169C274.29,-169 91,-169 91,-169 91,-169 91,-208.78 91,-208.78"/>
<polygon fill="black" stroke="black" points="87.5,-208.78 91,-218.78 94.5,-208.78 87.5,-208.78"/>
</g>
<!-- SnippetsModule&#45;&gt;TerminalModule -->
<g id="edge39" class="edge">
<title>SnippetsModule&#45;&gt;TerminalModule</title>
<path fill="none" stroke="black" d="M448.94,-187.29C448.94,-209.21 448.94,-243 448.94,-243 448.94,-243 612.55,-243 612.55,-243"/>
<polygon fill="black" stroke="black" points="612.55,-246.5 622.55,-243 612.55,-239.5 612.55,-246.5"/>
</g>
<!-- SnippetsService -->
<g id="node25" class="node">
<title>SnippetsService</title>
<ellipse fill="#fdb462" stroke="black" cx="255" cy="-237" rx="73.01" ry="18"/>
<text text-anchor="middle" x="255" y="-232.8" font-family="Times,serif" font-size="14.00">SnippetsService</text>
</g>
<!-- SnippetsService&#45;&gt;SnippetsComponent -->
<g id="edge22" class="edge">
<title>SnippetsService&#45;&gt;SnippetsComponent</title>
<path fill="none" stroke="black" d="M259,-255.01C259,-255.01 259,-284.85 259,-284.85"/>
<polygon fill="black" stroke="black" points="255.5,-284.85 259,-294.85 262.5,-284.85 255.5,-284.85"/>
</g>
<!-- SplitPanelComponent -->
<g id="node27" class="node">
<title>SplitPanelComponent</title>
<polygon fill="#ffffb3" stroke="black" points="1223.39,-255 1084.61,-255 1084.61,-219 1223.39,-219 1223.39,-255"/>
<text text-anchor="middle" x="1154" y="-232.8" font-family="Times,serif" font-size="14.00">SplitPanelComponent</text>
</g>
<!-- SplitPanelComponent&#45;&gt;TabsModule -->
<g id="edge24" class="edge">
<title>SplitPanelComponent&#45;&gt;TabsModule</title>
<path fill="none" stroke="black" d="M1211.58,-255.01C1211.58,-277.49 1211.58,-313 1211.58,-313 1211.58,-313 1213.61,-313 1213.61,-313"/>
<polygon fill="black" stroke="black" points="1213.61,-316.5 1223.61,-313 1213.61,-309.5 1213.61,-316.5"/>
</g>
<!-- TabsComponent -->
<g id="node28" class="node">
<title>TabsComponent</title>
<polygon fill="#ffffb3" stroke="black" points="1066.05,-255 957.95,-255 957.95,-219 1066.05,-219 1066.05,-255"/>
<text text-anchor="middle" x="1012" y="-232.8" font-family="Times,serif" font-size="14.00">TabsComponent</text>
</g>
<!-- TabsComponent&#45;&gt;TabsModule -->
<g id="edge25" class="edge">
<title>TabsComponent&#45;&gt;TabsModule</title>
<path fill="none" stroke="black" d="M1012,-255.06C1012,-259.49 1012,-263 1012,-263 1012,-263 1239.08,-263 1239.08,-263 1239.08,-263 1239.08,-284.95 1239.08,-284.95"/>
<polygon fill="black" stroke="black" points="1235.58,-284.95 1239.08,-294.95 1242.58,-284.95 1235.58,-284.95"/>
</g>
<!-- TerminalModule&#45;&gt;TabsModule -->
<g id="edge29" class="edge">
<title>TerminalModule&#45;&gt;TabsModule</title>
<path fill="none" stroke="black" d="M696.48,-255.19C696.48,-263.28 696.48,-271 696.48,-271 696.48,-271 1235.21,-271 1235.21,-271 1235.21,-271 1235.21,-284.94 1235.21,-284.94"/>
<polygon fill="black" stroke="black" points="1231.71,-284.94 1235.21,-294.94 1238.71,-284.94 1231.71,-284.94"/>
</g>
<!-- TerminalComponent  -->
<g id="node36" class="node">
<title>TerminalComponent </title>
<polygon fill="#fb8072" stroke="black" points="746.15,-331 609.85,-331 609.85,-295 746.15,-295 746.15,-331"/>
<text text-anchor="middle" x="678" y="-308.8" font-family="Times,serif" font-size="14.00">TerminalComponent </text>
</g>
<!-- TerminalModule&#45;&gt;TerminalComponent  -->
<g id="edge40" class="edge">
<title>TerminalModule&#45;&gt;TerminalComponent </title>
<path fill="none" stroke="black" stroke-dasharray="5,2" d="M659.52,-255.01C659.52,-255.01 659.52,-284.85 659.52,-284.85"/>
<polygon fill="black" stroke="black" points="656.02,-284.85 659.52,-294.85 663.02,-284.85 656.02,-284.85"/>
</g>
<!-- TabService -->
<g id="node32" class="node">
<title>TabService</title>
<ellipse fill="#fdb462" stroke="black" cx="1604" cy="-237" rx="55.01" ry="18"/>
<text text-anchor="middle" x="1604" y="-232.8" font-family="Times,serif" font-size="14.00">TabService</text>
</g>
<!-- TabService&#45;&gt;TabsModule -->
<g id="edge33" class="edge">
<title>TabService&#45;&gt;TabsModule</title>
<path fill="none" stroke="black" d="M1604,-255.03C1604,-279.98 1604,-322 1604,-322 1604,-322 1320.37,-322 1320.37,-322"/>
<polygon fill="black" stroke="black" points="1320.37,-318.5 1310.37,-322 1320.37,-325.5 1320.37,-318.5"/>
</g>
<!-- TerminalComponent&#45;&gt;TerminalModule -->
<g id="edge34" class="edge">
<title>TerminalComponent&#45;&gt;TerminalModule</title>
<path fill="none" stroke="black" d="M824,-187.22C824,-207.37 824,-237 824,-237 824,-237 743.61,-237 743.61,-237"/>
<polygon fill="black" stroke="black" points="743.61,-233.5 733.61,-237 743.61,-240.5 743.61,-233.5"/>
</g>
<!-- TopBarComponent -->
<g id="node34" class="node">
<title>TopBarComponent</title>
<polygon fill="#ffffb3" stroke="black" points="740.1,-187 615.9,-187 615.9,-151 740.1,-151 740.1,-187"/>
<text text-anchor="middle" x="678" y="-164.8" font-family="Times,serif" font-size="14.00">TopBarComponent</text>
</g>
<!-- TopBarComponent&#45;&gt;TerminalModule -->
<g id="edge37" class="edge">
<title>TopBarComponent&#45;&gt;TerminalModule</title>
<path fill="none" stroke="black" d="M678,-187.22C678,-187.22 678,-208.73 678,-208.73"/>
<polygon fill="black" stroke="black" points="674.5,-208.73 678,-218.73 681.5,-208.73 674.5,-208.73"/>
</g>
<!-- NodePtyService -->
<g id="node35" class="node">
<title>NodePtyService</title>
<ellipse fill="#fdb462" stroke="black" cx="816" cy="-104" rx="73.58" ry="18"/>
<text text-anchor="middle" x="816" y="-99.8" font-family="Times,serif" font-size="14.00">NodePtyService</text>
</g>
<!-- NodePtyService&#45;&gt;TerminalComponent -->
<g id="edge35" class="edge">
<title>NodePtyService&#45;&gt;TerminalComponent</title>
<path fill="none" stroke="black" d="M823.73,-122.11C823.73,-122.11 823.73,-140.99 823.73,-140.99"/>
<polygon fill="black" stroke="black" points="820.23,-140.99 823.73,-150.99 827.23,-140.99 820.23,-140.99"/>
</g>
</g>
</svg>
