<?xml version="1.0" encoding="UTF-8" standalone="no"?>
<!DOCTYPE svg PUBLIC "-//W3C//DTD SVG 1.1//EN"
 "http://www.w3.org/Graphics/SVG/1.1/DTD/svg11.dtd">
<!-- Generated by graphviz version 2.47.0 (20210316.0004)
 -->
<!-- Title: dependencies Pages: 1 -->
<svg width="504pt" height="349pt"
 viewBox="0.00 0.00 504.00 349.00" xmlns="http://www.w3.org/2000/svg" xmlns:xlink="http://www.w3.org/1999/xlink">
<g id="graph0" class="graph" transform="scale(1 1) rotate(0) translate(4 345)">
<title>dependencies</title>
<polygon fill="white" stroke="transparent" points="-4,4 -4,-345 500,-345 500,4 -4,4"/>
<text text-anchor="start" x="227.01" y="-42.4" font-family="sans-serif" font-weight="bold" font-size="14.00">Legend</text>
<polygon fill="#ffffb3" stroke="transparent" points="14,-10 14,-30 34,-30 34,-10 14,-10"/>
<text text-anchor="start" x="37.63" y="-15.4" font-family="sans-serif" font-size="14.00"> &#160;Declarations</text>
<polygon fill="#8dd3c7" stroke="transparent" points="127,-10 127,-30 147,-30 147,-10 127,-10"/>
<text text-anchor="start" x="150.73" y="-15.4" font-family="sans-serif" font-size="14.00"> &#160;Module</text>
<polygon fill="#80b1d3" stroke="transparent" points="213,-10 213,-30 233,-30 233,-10 213,-10"/>
<text text-anchor="start" x="236.78" y="-15.4" font-family="sans-serif" font-size="14.00"> &#160;Bootstrap</text>
<polygon fill="#fdb462" stroke="transparent" points="310,-10 310,-30 330,-30 330,-10 310,-10"/>
<text text-anchor="start" x="333.67" y="-15.4" font-family="sans-serif" font-size="14.00"> &#160;Providers</text>
<polygon fill="#fb8072" stroke="transparent" points="406,-10 406,-30 426,-30 426,-10 406,-10"/>
<text text-anchor="start" x="429.73" y="-15.4" font-family="sans-serif" font-size="14.00"> &#160;Exports</text>
<g id="clust1" class="cluster">
<title>cluster_TaskListModule</title>
<polygon fill="none" stroke="black" stroke-dasharray="1,5" points="158,-70 158,-333 338,-333 338,-70 158,-70"/>
</g>
<g id="clust2" class="cluster">
<title>cluster_TaskListModule_declarations</title>
<polygon fill="none" stroke="black" points="175,-143 175,-195 321,-195 321,-143 175,-143"/>
</g>
<g id="clust3" class="cluster">
<title>cluster_TaskListModule_TaskListComponent_providers</title>
<polygon fill="none" stroke="black" points="166,-78 166,-130 330,-130 330,-78 166,-78"/>
</g>
<g id="clust5" class="cluster">
<title>cluster_TaskListModule_exports</title>
<polygon fill="none" stroke="black" points="173,-273 173,-325 323,-325 323,-273 173,-273"/>
</g>
<!-- SnippetsComponent -->
<g id="node1" class="node">
<title>SnippetsComponent</title>
<polygon fill="#ffffb3" stroke="black" points="313.32,-187 182.68,-187 182.68,-151 313.32,-151 313.32,-187"/>
<text text-anchor="middle" x="248" y="-164.8" font-family="Times,serif" font-size="14.00">SnippetsComponent</text>
</g>
<!-- SnippetsModule -->
<g id="node2" class="node">
<title>SnippetsModule</title>
<polygon fill="#8dd3c7" stroke="black" points="302.04,-252 299.04,-256 278.04,-256 275.04,-252 193.96,-252 193.96,-216 302.04,-216 302.04,-252"/>
<text text-anchor="middle" x="248" y="-229.8" font-family="Times,serif" font-size="14.00">SnippetsModule</text>
</g>
<!-- SnippetsComponent&#45;&gt;SnippetsModule -->
<g id="edge1" class="edge">
<title>SnippetsComponent&#45;&gt;SnippetsModule</title>
<path fill="none" stroke="black" d="M248,-187.11C248,-187.11 248,-205.99 248,-205.99"/>
<polygon fill="black" stroke="black" points="244.5,-205.99 248,-215.99 251.5,-205.99 244.5,-205.99"/>
</g>
<!-- SnippetsComponent  -->
<g id="node4" class="node">
<title>SnippetsComponent </title>
<polygon fill="#fb8072" stroke="black" points="314.82,-317 181.18,-317 181.18,-281 314.82,-281 314.82,-317"/>
<text text-anchor="middle" x="248" y="-294.8" font-family="Times,serif" font-size="14.00">SnippetsComponent </text>
</g>
<!-- SnippetsModule&#45;&gt;SnippetsComponent  -->
<g id="edge3" class="edge">
<title>SnippetsModule&#45;&gt;SnippetsComponent </title>
<path fill="none" stroke="black" stroke-dasharray="5,2" d="M248,-252.11C248,-252.11 248,-270.99 248,-270.99"/>
<polygon fill="black" stroke="black" points="244.5,-270.99 248,-280.99 251.5,-270.99 244.5,-270.99"/>
</g>
<!-- SnippetsService -->
<g id="node3" class="node">
<title>SnippetsService</title>
<ellipse fill="#fdb462" stroke="black" cx="248" cy="-104" rx="73.57" ry="18"/>
<text text-anchor="middle" x="248" y="-99.8" font-family="Times,serif" font-size="14.00">SnippetsService</text>
</g>
<!-- SnippetsService&#45;&gt;SnippetsComponent -->
<g id="edge2" class="edge">
<title>SnippetsService&#45;&gt;SnippetsComponent</title>
<path fill="none" stroke="black" d="M248,-122.11C248,-122.11 248,-140.99 248,-140.99"/>
<polygon fill="black" stroke="black" points="244.5,-140.99 248,-150.99 251.5,-140.99 244.5,-140.99"/>
</g>
</g>
</svg>
