<?xml version="1.0" encoding="UTF-8" standalone="no"?>
<!DOCTYPE svg PUBLIC "-//W3C//DTD SVG 1.1//EN"
 "http://www.w3.org/Graphics/SVG/1.1/DTD/svg11.dtd">
<!-- Generated by graphviz version 2.47.0 (20210316.0004)
 -->
<!-- Title: dependencies Pages: 1 -->
<svg width="553pt" height="284pt"
 viewBox="0.00 0.00 553.00 284.00" xmlns="http://www.w3.org/2000/svg" xmlns:xlink="http://www.w3.org/1999/xlink">
<g id="graph0" class="graph" transform="scale(1 1) rotate(0) translate(4 280)">
<title>dependencies</title>
<polygon fill="white" stroke="transparent" points="-4,4 -4,-280 549,-280 549,4 -4,4"/>
<text text-anchor="start" x="251.51" y="-42.4" font-family="sans-serif" font-weight="bold" font-size="14.00">Legend</text>
<polygon fill="#ffffb3" stroke="transparent" points="38.5,-10 38.5,-30 58.5,-30 58.5,-10 38.5,-10"/>
<text text-anchor="start" x="62.13" y="-15.4" font-family="sans-serif" font-size="14.00"> &#160;Declarations</text>
<polygon fill="#8dd3c7" stroke="transparent" points="151.5,-10 151.5,-30 171.5,-30 171.5,-10 151.5,-10"/>
<text text-anchor="start" x="175.23" y="-15.4" font-family="sans-serif" font-size="14.00"> &#160;Module</text>
<polygon fill="#80b1d3" stroke="transparent" points="237.5,-10 237.5,-30 257.5,-30 257.5,-10 237.5,-10"/>
<text text-anchor="start" x="261.28" y="-15.4" font-family="sans-serif" font-size="14.00"> &#160;Bootstrap</text>
<polygon fill="#fdb462" stroke="transparent" points="334.5,-10 334.5,-30 354.5,-30 354.5,-10 334.5,-10"/>
<text text-anchor="start" x="358.17" y="-15.4" font-family="sans-serif" font-size="14.00"> &#160;Providers</text>
<polygon fill="#fb8072" stroke="transparent" points="430.5,-10 430.5,-30 450.5,-30 450.5,-10 430.5,-10"/>
<text text-anchor="start" x="454.23" y="-15.4" font-family="sans-serif" font-size="14.00"> &#160;Exports</text>
<g id="clust1" class="cluster">
<title>cluster_AppModule</title>
<polygon fill="none" stroke="black" stroke-dasharray="1,5" points="8,-70 8,-268 537,-268 537,-70 8,-70"/>
</g>
<g id="clust2" class="cluster">
<title>cluster_AppModule_declarations</title>
<polygon fill="none" stroke="black" points="243,-78 243,-130 529,-130 529,-78 243,-78"/>
</g>
<g id="clust6" class="cluster">
<title>cluster_AppModule_exports</title>
<polygon fill="none" stroke="black" points="90,-208 90,-260 256,-260 256,-208 90,-208"/>
</g>
<g id="clust5" class="cluster">
<title>cluster_AppModule_imports</title>
<polygon fill="none" stroke="black" points="16,-78 16,-130 235,-130 235,-78 16,-78"/>
</g>
<g id="clust7" class="cluster">
<title>cluster_AppModule_bootstrap</title>
<polygon fill="none" stroke="black" points="264,-208 264,-260 388,-260 388,-208 264,-208"/>
</g>
<!-- AppComponent -->
<g id="node1" class="node">
<title>AppComponent</title>
<polygon fill="#ffffb3" stroke="black" points="520.94,-122 415.06,-122 415.06,-86 520.94,-86 520.94,-122"/>
<text text-anchor="middle" x="468" y="-99.8" font-family="Times,serif" font-size="14.00">AppComponent</text>
</g>
<!-- AppModule -->
<g id="node3" class="node">
<title>AppModule</title>
<polygon fill="#8dd3c7" stroke="black" points="287.66,-187 284.66,-191 263.66,-191 260.66,-187 204.34,-187 204.34,-151 287.66,-151 287.66,-187"/>
<text text-anchor="middle" x="246" y="-164.8" font-family="Times,serif" font-size="14.00">AppModule</text>
</g>
<!-- AppComponent&#45;&gt;AppModule -->
<g id="edge1" class="edge">
<title>AppComponent&#45;&gt;AppModule</title>
<path fill="none" stroke="black" d="M468,-122.11C468,-141.34 468,-169 468,-169 468,-169 297.76,-169 297.76,-169"/>
<polygon fill="black" stroke="black" points="297.76,-165.5 287.76,-169 297.76,-172.5 297.76,-165.5"/>
</g>
<!-- AppTopbarComponent -->
<g id="node2" class="node">
<title>AppTopbarComponent</title>
<polygon fill="#ffffb3" stroke="black" points="396.87,-122 251.13,-122 251.13,-86 396.87,-86 396.87,-122"/>
<text text-anchor="middle" x="324" y="-99.8" font-family="Times,serif" font-size="14.00">AppTopbarComponent</text>
</g>
<!-- AppTopbarComponent&#45;&gt;AppModule -->
<g id="edge2" class="edge">
<title>AppTopbarComponent&#45;&gt;AppModule</title>
<path fill="none" stroke="black" d="M269.45,-122.11C269.45,-122.11 269.45,-140.99 269.45,-140.99"/>
<polygon fill="black" stroke="black" points="265.95,-140.99 269.45,-150.99 272.95,-140.99 265.95,-140.99"/>
</g>
<!-- AppTopbarComponent  -->
<g id="node6" class="node">
<title>AppTopbarComponent </title>
<polygon fill="#fb8072" stroke="black" points="247.87,-252 98.13,-252 98.13,-216 247.87,-216 247.87,-252"/>
<text text-anchor="middle" x="173" y="-229.8" font-family="Times,serif" font-size="14.00">AppTopbarComponent </text>
</g>
<!-- AppModule&#45;&gt;AppTopbarComponent  -->
<g id="edge5" class="edge">
<title>AppModule&#45;&gt;AppTopbarComponent </title>
<path fill="none" stroke="black" stroke-dasharray="5,2" d="M225.93,-187.11C225.93,-187.11 225.93,-205.99 225.93,-205.99"/>
<polygon fill="black" stroke="black" points="222.43,-205.99 225.93,-215.99 229.43,-205.99 222.43,-205.99"/>
</g>
<!-- AppComponent  -->
<g id="node7" class="node">
<title>AppComponent </title>
<polygon fill="#80b1d3" stroke="black" points="380.44,-252 271.56,-252 271.56,-216 380.44,-216 380.44,-252"/>
<text text-anchor="middle" x="326" y="-229.8" font-family="Times,serif" font-size="14.00">AppComponent </text>
</g>
<!-- AppModule&#45;&gt;AppComponent  -->
<g id="edge6" class="edge">
<title>AppModule&#45;&gt;AppComponent </title>
<path fill="none" stroke="black" stroke-dasharray="1,5" d="M279.68,-187.11C279.68,-187.11 279.68,-205.99 279.68,-205.99"/>
<polygon fill="black" stroke="black" points="276.18,-205.99 279.68,-215.99 283.18,-205.99 276.18,-205.99"/>
</g>
<!-- SharedModule -->
<g id="node4" class="node">
<title>SharedModule</title>
<polygon fill="#8dd3c7" stroke="black" points="227.42,-122 224.42,-126 203.42,-126 200.42,-122 128.58,-122 128.58,-86 227.42,-86 227.42,-122"/>
<text text-anchor="middle" x="178" y="-99.8" font-family="Times,serif" font-size="14.00">SharedModule</text>
</g>
<!-- SharedModule&#45;&gt;AppModule -->
<g id="edge3" class="edge">
<title>SharedModule&#45;&gt;AppModule</title>
<path fill="none" stroke="black" d="M215.69,-122.11C215.69,-122.11 215.69,-140.99 215.69,-140.99"/>
<polygon fill="black" stroke="black" points="212.19,-140.99 215.69,-150.99 219.19,-140.99 212.19,-140.99"/>
</g>
<!-- TabsModule -->
<g id="node5" class="node">
<title>TabsModule</title>
<polygon fill="#8dd3c7" stroke="black" points="110.26,-122 107.26,-126 86.26,-126 83.26,-122 23.74,-122 23.74,-86 110.26,-86 110.26,-122"/>
<text text-anchor="middle" x="67" y="-99.8" font-family="Times,serif" font-size="14.00">TabsModule</text>
</g>
<!-- TabsModule&#45;&gt;AppModule -->
<g id="edge4" class="edge">
<title>TabsModule&#45;&gt;AppModule</title>
<path fill="none" stroke="black" d="M104.35,-122.11C104.35,-141.34 104.35,-169 104.35,-169 104.35,-169 194.27,-169 194.27,-169"/>
<polygon fill="black" stroke="black" points="194.27,-172.5 204.27,-169 194.27,-165.5 194.27,-172.5"/>
</g>
</g>
</svg>
