<?xml version="1.0" encoding="UTF-8" standalone="no"?>
<!DOCTYPE svg PUBLIC "-//W3C//DTD SVG 1.1//EN"
 "http://www.w3.org/Graphics/SVG/1.1/DTD/svg11.dtd">
<!-- Generated by graphviz version 2.47.0 (20210316.0004)
 -->
<!-- Title: dependencies Pages: 1 -->
<svg width="578pt" height="349pt"
 viewBox="0.00 0.00 578.00 349.00" xmlns="http://www.w3.org/2000/svg" xmlns:xlink="http://www.w3.org/1999/xlink">
<g id="graph0" class="graph" transform="scale(1 1) rotate(0) translate(4 345)">
<title>dependencies</title>
<polygon fill="white" stroke="transparent" points="-4,4 -4,-345 574,-345 574,4 -4,4"/>
<text text-anchor="start" x="264.01" y="-42.4" font-family="sans-serif" font-weight="bold" font-size="14.00">Legend</text>
<polygon fill="#ffffb3" stroke="transparent" points="51,-10 51,-30 71,-30 71,-10 51,-10"/>
<text text-anchor="start" x="74.63" y="-15.4" font-family="sans-serif" font-size="14.00"> &#160;Declarations</text>
<polygon fill="#8dd3c7" stroke="transparent" points="164,-10 164,-30 184,-30 184,-10 164,-10"/>
<text text-anchor="start" x="187.73" y="-15.4" font-family="sans-serif" font-size="14.00"> &#160;Module</text>
<polygon fill="#80b1d3" stroke="transparent" points="250,-10 250,-30 270,-30 270,-10 250,-10"/>
<text text-anchor="start" x="273.78" y="-15.4" font-family="sans-serif" font-size="14.00"> &#160;Bootstrap</text>
<polygon fill="#fdb462" stroke="transparent" points="347,-10 347,-30 367,-30 367,-10 347,-10"/>
<text text-anchor="start" x="370.67" y="-15.4" font-family="sans-serif" font-size="14.00"> &#160;Providers</text>
<polygon fill="#fb8072" stroke="transparent" points="443,-10 443,-30 463,-30 463,-10 443,-10"/>
<text text-anchor="start" x="466.73" y="-15.4" font-family="sans-serif" font-size="14.00"> &#160;Exports</text>
<g id="clust1" class="cluster">
<title>cluster_TerminalModule</title>
<polygon fill="none" stroke="black" stroke-dasharray="1,5" points="8,-70 8,-333 562,-333 562,-70 8,-70"/>
</g>
<g id="clust6" class="cluster">
<title>cluster_TerminalModule_exports</title>
<polygon fill="none" stroke="black" points="228,-273 228,-325 380,-325 380,-273 228,-273"/>
</g>
<g id="clust5" class="cluster">
<title>cluster_TerminalModule_imports</title>
<polygon fill="none" stroke="black" points="314,-143 314,-195 554,-195 554,-143 314,-143"/>
</g>
<g id="clust2" class="cluster">
<title>cluster_TerminalModule_declarations</title>
<polygon fill="none" stroke="black" points="16,-143 16,-195 306,-195 306,-143 16,-143"/>
</g>
<g id="clust3" class="cluster">
<title>cluster_TerminalModule_TerminalComponent_providers</title>
<polygon fill="none" stroke="black" points="84,-78 84,-130 408,-130 408,-78 84,-78"/>
</g>
<!-- TerminalComponent -->
<g id="node1" class="node">
<title>TerminalComponent</title>
<polygon fill="#ffffb3" stroke="black" points="298.15,-187 165.85,-187 165.85,-151 298.15,-151 298.15,-187"/>
<text text-anchor="middle" x="232" y="-164.8" font-family="Times,serif" font-size="14.00">TerminalComponent</text>
</g>
<!-- TerminalModule -->
<g id="node3" class="node">
<title>TerminalModule</title>
<polygon fill="#8dd3c7" stroke="black" points="359.36,-252 356.36,-256 335.36,-256 332.36,-252 248.64,-252 248.64,-216 359.36,-216 359.36,-252"/>
<text text-anchor="middle" x="304" y="-229.8" font-family="Times,serif" font-size="14.00">TerminalModule</text>
</g>
<!-- TerminalComponent&#45;&gt;TerminalModule -->
<g id="edge1" class="edge">
<title>TerminalComponent&#45;&gt;TerminalModule</title>
<path fill="none" stroke="black" d="M273.45,-187.11C273.45,-187.11 273.45,-205.99 273.45,-205.99"/>
<polygon fill="black" stroke="black" points="269.95,-205.99 273.45,-215.99 276.95,-205.99 269.95,-205.99"/>
</g>
<!-- TopBarComponent -->
<g id="node2" class="node">
<title>TopBarComponent</title>
<polygon fill="#ffffb3" stroke="black" points="148.1,-187 23.9,-187 23.9,-151 148.1,-151 148.1,-187"/>
<text text-anchor="middle" x="86" y="-164.8" font-family="Times,serif" font-size="14.00">TopBarComponent</text>
</g>
<!-- TopBarComponent&#45;&gt;TerminalModule -->
<g id="edge4" class="edge">
<title>TopBarComponent&#45;&gt;TerminalModule</title>
<path fill="none" stroke="black" d="M86,-187.11C86,-206.34 86,-234 86,-234 86,-234 238.43,-234 238.43,-234"/>
<polygon fill="black" stroke="black" points="238.43,-237.5 248.43,-234 238.43,-230.5 238.43,-237.5"/>
</g>
<!-- TerminalComponent  -->
<g id="node8" class="node">
<title>TerminalComponent </title>
<polygon fill="#fb8072" stroke="black" points="372.15,-317 235.85,-317 235.85,-281 372.15,-281 372.15,-317"/>
<text text-anchor="middle" x="304" y="-294.8" font-family="Times,serif" font-size="14.00">TerminalComponent </text>
</g>
<!-- TerminalModule&#45;&gt;TerminalComponent  -->
<g id="edge7" class="edge">
<title>TerminalModule&#45;&gt;TerminalComponent </title>
<path fill="none" stroke="black" stroke-dasharray="5,2" d="M304,-252.11C304,-252.11 304,-270.99 304,-270.99"/>
<polygon fill="black" stroke="black" points="300.5,-270.99 304,-280.99 307.5,-270.99 300.5,-270.99"/>
</g>
<!-- NodePtyService -->
<g id="node4" class="node">
<title>NodePtyService</title>
<ellipse fill="#fdb462" stroke="black" cx="326" cy="-104" rx="73.58" ry="18"/>
<text text-anchor="middle" x="326" y="-99.8" font-family="Times,serif" font-size="14.00">NodePtyService</text>
</g>
<!-- NodePtyService&#45;&gt;TerminalComponent -->
<g id="edge2" class="edge">
<title>NodePtyService&#45;&gt;TerminalComponent</title>
<path fill="none" stroke="black" d="M275.27,-117.15C275.27,-117.15 275.27,-140.69 275.27,-140.69"/>
<polygon fill="black" stroke="black" points="271.77,-140.69 275.27,-150.69 278.77,-140.69 271.77,-140.69"/>
</g>
<!-- SettingsService -->
<g id="node5" class="node">
<title>SettingsService</title>
<ellipse fill="#fdb462" stroke="black" cx="163" cy="-104" rx="71.22" ry="18"/>
<text text-anchor="middle" x="163" y="-99.8" font-family="Times,serif" font-size="14.00">SettingsService</text>
</g>
<!-- SettingsService&#45;&gt;TerminalComponent -->
<g id="edge3" class="edge">
<title>SettingsService&#45;&gt;TerminalComponent</title>
<path fill="none" stroke="black" d="M199.89,-119.4C199.89,-119.4 199.89,-140.94 199.89,-140.94"/>
<polygon fill="black" stroke="black" points="196.39,-140.94 199.89,-150.94 203.39,-140.94 196.39,-140.94"/>
</g>
<!-- SharedModule -->
<g id="node6" class="node">
<title>SharedModule</title>
<polygon fill="#8dd3c7" stroke="black" points="546.42,-187 543.42,-191 522.42,-191 519.42,-187 447.58,-187 447.58,-151 546.42,-151 546.42,-187"/>
<text text-anchor="middle" x="497" y="-164.8" font-family="Times,serif" font-size="14.00">SharedModule</text>
</g>
<!-- SharedModule&#45;&gt;TerminalModule -->
<g id="edge5" class="edge">
<title>SharedModule&#45;&gt;TerminalModule</title>
<path fill="none" stroke="black" d="M497,-187.11C497,-206.34 497,-234 497,-234 497,-234 369.56,-234 369.56,-234"/>
<polygon fill="black" stroke="black" points="369.56,-230.5 359.56,-234 369.56,-237.5 369.56,-230.5"/>
</g>
<!-- SnippetsModule -->
<g id="node7" class="node">
<title>SnippetsModule</title>
<polygon fill="#8dd3c7" stroke="black" points="429.77,-187 426.77,-191 405.77,-191 402.77,-187 322.23,-187 322.23,-151 429.77,-151 429.77,-187"/>
<text text-anchor="middle" x="376" y="-164.8" font-family="Times,serif" font-size="14.00">SnippetsModule</text>
</g>
<!-- SnippetsModule&#45;&gt;TerminalModule -->
<g id="edge6" class="edge">
<title>SnippetsModule&#45;&gt;TerminalModule</title>
<path fill="none" stroke="black" d="M340.77,-187.11C340.77,-187.11 340.77,-205.99 340.77,-205.99"/>
<polygon fill="black" stroke="black" points="337.27,-205.99 340.77,-215.99 344.27,-205.99 337.27,-205.99"/>
</g>
</g>
</svg>
